<mxfile host="app.diagrams.net" modified="2024-03-09T22:09:35.101Z" agent="Mozilla/5.0 (Macintosh; Intel Mac OS X 10_15_7) AppleWebKit/605.1.15 (KHTML, like Gecko) Version/17.1 Safari/605.1.15" etag="DhJ7PCY3h7bW1kdUKJ7Z" version="24.0.2" type="device" pages="7">
  <diagram name="task-01" id="rdDR_Imof5OFmyr_dIbe">
    <mxGraphModel dx="896" dy="681" grid="1" gridSize="10" guides="1" tooltips="1" connect="1" arrows="1" fold="1" page="1" pageScale="1" pageWidth="827" pageHeight="1169" math="0" shadow="0">
      <root>
        <mxCell id="0" />
        <mxCell id="1" parent="0" />
        <mxCell id="a_kuvNBLlnDG71w9Eif2-28" value="" style="shape=parallelogram;perimeter=parallelogramPerimeter;whiteSpace=wrap;html=1;fixedSize=1;" parent="1" vertex="1">
          <mxGeometry x="180" y="190" width="120" height="60" as="geometry" />
        </mxCell>
        <mxCell id="a_kuvNBLlnDG71w9Eif2-29" value="" style="ellipse;whiteSpace=wrap;html=1;aspect=fixed;" parent="1" vertex="1">
          <mxGeometry x="210" y="30" width="80" height="80" as="geometry" />
        </mxCell>
        <mxCell id="a_kuvNBLlnDG71w9Eif2-30" value="Start" style="text;html=1;align=center;verticalAlign=middle;whiteSpace=wrap;rounded=0;" parent="1" vertex="1">
          <mxGeometry x="220" y="55" width="60" height="30" as="geometry" />
        </mxCell>
        <mxCell id="a_kuvNBLlnDG71w9Eif2-31" value="n" style="text;html=1;align=center;verticalAlign=middle;whiteSpace=wrap;rounded=0;" parent="1" vertex="1">
          <mxGeometry x="210" y="205" width="60" height="30" as="geometry" />
        </mxCell>
        <mxCell id="a_kuvNBLlnDG71w9Eif2-32" value="" style="endArrow=classic;html=1;rounded=0;exitX=0.5;exitY=1;exitDx=0;exitDy=0;entryX=0.579;entryY=-0.022;entryDx=0;entryDy=0;entryPerimeter=0;" parent="1" source="a_kuvNBLlnDG71w9Eif2-29" target="a_kuvNBLlnDG71w9Eif2-28" edge="1">
          <mxGeometry width="50" height="50" relative="1" as="geometry">
            <mxPoint x="390" y="330" as="sourcePoint" />
            <mxPoint x="440" y="280" as="targetPoint" />
          </mxGeometry>
        </mxCell>
        <mxCell id="a_kuvNBLlnDG71w9Eif2-33" value="" style="rhombus;whiteSpace=wrap;html=1;" parent="1" vertex="1">
          <mxGeometry x="190" y="310" width="80" height="80" as="geometry" />
        </mxCell>
        <mxCell id="a_kuvNBLlnDG71w9Eif2-36" value="n%2 == 0" style="text;html=1;align=center;verticalAlign=middle;whiteSpace=wrap;rounded=0;" parent="1" vertex="1">
          <mxGeometry x="200" y="330" width="60" height="30" as="geometry" />
        </mxCell>
        <mxCell id="4iZaPqbJq2AYT855LS6I-1" value="" style="shape=document;whiteSpace=wrap;html=1;boundedLbl=1;" parent="1" vertex="1">
          <mxGeometry x="170" y="480" width="120" height="80" as="geometry" />
        </mxCell>
        <mxCell id="4iZaPqbJq2AYT855LS6I-2" value="" style="endArrow=none;html=1;rounded=0;entryX=0.5;entryY=1;entryDx=0;entryDy=0;" parent="1" target="a_kuvNBLlnDG71w9Eif2-33" edge="1">
          <mxGeometry width="50" height="50" relative="1" as="geometry">
            <mxPoint x="230" y="430" as="sourcePoint" />
            <mxPoint x="380" y="250" as="targetPoint" />
          </mxGeometry>
        </mxCell>
        <mxCell id="4iZaPqbJq2AYT855LS6I-3" value="True" style="text;html=1;align=center;verticalAlign=middle;whiteSpace=wrap;rounded=0;" parent="1" vertex="1">
          <mxGeometry x="200" y="424" width="60" height="30" as="geometry" />
        </mxCell>
        <mxCell id="4iZaPqbJq2AYT855LS6I-5" value="" style="endArrow=classic;html=1;rounded=0;exitX=0.5;exitY=1;exitDx=0;exitDy=0;" parent="1" source="4iZaPqbJq2AYT855LS6I-3" target="4iZaPqbJq2AYT855LS6I-1" edge="1">
          <mxGeometry width="50" height="50" relative="1" as="geometry">
            <mxPoint x="330" y="300" as="sourcePoint" />
            <mxPoint x="380" y="250" as="targetPoint" />
          </mxGeometry>
        </mxCell>
        <mxCell id="4iZaPqbJq2AYT855LS6I-6" value="n ədədi cütdür" style="text;html=1;align=center;verticalAlign=middle;whiteSpace=wrap;rounded=0;" parent="1" vertex="1">
          <mxGeometry x="200" y="490" width="60" height="30" as="geometry" />
        </mxCell>
        <mxCell id="4iZaPqbJq2AYT855LS6I-7" value="" style="endArrow=classic;html=1;rounded=0;exitX=0.392;exitY=1.05;exitDx=0;exitDy=0;exitPerimeter=0;" parent="1" source="a_kuvNBLlnDG71w9Eif2-28" target="a_kuvNBLlnDG71w9Eif2-33" edge="1">
          <mxGeometry width="50" height="50" relative="1" as="geometry">
            <mxPoint x="330" y="300" as="sourcePoint" />
            <mxPoint x="380" y="250" as="targetPoint" />
          </mxGeometry>
        </mxCell>
        <mxCell id="4iZaPqbJq2AYT855LS6I-8" value="" style="shape=document;whiteSpace=wrap;html=1;boundedLbl=1;" parent="1" vertex="1">
          <mxGeometry x="440" y="320" width="120" height="80" as="geometry" />
        </mxCell>
        <mxCell id="4iZaPqbJq2AYT855LS6I-9" value="n ədədi təkdir" style="text;html=1;align=center;verticalAlign=middle;whiteSpace=wrap;rounded=0;" parent="1" vertex="1">
          <mxGeometry x="470" y="335" width="60" height="30" as="geometry" />
        </mxCell>
        <mxCell id="4iZaPqbJq2AYT855LS6I-12" value="False" style="text;html=1;align=center;verticalAlign=middle;whiteSpace=wrap;rounded=0;" parent="1" vertex="1">
          <mxGeometry x="310" y="335" width="60" height="30" as="geometry" />
        </mxCell>
        <mxCell id="4iZaPqbJq2AYT855LS6I-17" value="" style="endArrow=none;html=1;rounded=0;exitX=1;exitY=0.5;exitDx=0;exitDy=0;" parent="1" source="a_kuvNBLlnDG71w9Eif2-33" edge="1">
          <mxGeometry width="50" height="50" relative="1" as="geometry">
            <mxPoint x="330" y="300" as="sourcePoint" />
            <mxPoint x="310" y="350" as="targetPoint" />
          </mxGeometry>
        </mxCell>
        <mxCell id="4iZaPqbJq2AYT855LS6I-18" value="" style="endArrow=classic;html=1;rounded=0;exitX=1;exitY=0.5;exitDx=0;exitDy=0;entryX=-0.008;entryY=0.4;entryDx=0;entryDy=0;entryPerimeter=0;" parent="1" source="4iZaPqbJq2AYT855LS6I-12" target="4iZaPqbJq2AYT855LS6I-8" edge="1">
          <mxGeometry width="50" height="50" relative="1" as="geometry">
            <mxPoint x="330" y="300" as="sourcePoint" />
            <mxPoint x="380" y="250" as="targetPoint" />
          </mxGeometry>
        </mxCell>
        <mxCell id="4qKmPX2asGpR9-DpwYik-1" value="Tapşırıq-01" style="text;html=1;align=center;verticalAlign=middle;whiteSpace=wrap;rounded=0;" parent="1" vertex="1">
          <mxGeometry x="10" y="10" width="80" height="30" as="geometry" />
        </mxCell>
      </root>
    </mxGraphModel>
  </diagram>
  <diagram id="CSVkaAbmqyIEn9aN3NsJ" name="task-02">
    <mxGraphModel dx="613" dy="392" grid="1" gridSize="10" guides="1" tooltips="1" connect="1" arrows="1" fold="1" page="1" pageScale="1" pageWidth="827" pageHeight="1169" math="0" shadow="0">
      <root>
        <mxCell id="0" />
        <mxCell id="1" parent="0" />
        <mxCell id="ecnET8qEaafnBf6bZj2x-1" value="" style="ellipse;whiteSpace=wrap;html=1;" parent="1" vertex="1">
          <mxGeometry x="260" y="50" width="120" height="80" as="geometry" />
        </mxCell>
        <mxCell id="ecnET8qEaafnBf6bZj2x-2" value="Start" style="text;html=1;align=center;verticalAlign=middle;whiteSpace=wrap;rounded=0;" parent="1" vertex="1">
          <mxGeometry x="290" y="75" width="60" height="30" as="geometry" />
        </mxCell>
        <mxCell id="ecnET8qEaafnBf6bZj2x-3" value="" style="endArrow=classic;html=1;rounded=0;exitX=0.442;exitY=1.028;exitDx=0;exitDy=0;exitPerimeter=0;" parent="1" source="ecnET8qEaafnBf6bZj2x-1" edge="1">
          <mxGeometry width="50" height="50" relative="1" as="geometry">
            <mxPoint x="430" y="330" as="sourcePoint" />
            <mxPoint x="313" y="180" as="targetPoint" />
          </mxGeometry>
        </mxCell>
        <mxCell id="ecnET8qEaafnBf6bZj2x-4" value="" style="shape=parallelogram;perimeter=parallelogramPerimeter;whiteSpace=wrap;html=1;fixedSize=1;" parent="1" vertex="1">
          <mxGeometry x="250" y="180" width="120" height="60" as="geometry" />
        </mxCell>
        <mxCell id="ecnET8qEaafnBf6bZj2x-5" value="Tapşırıq-02" style="text;html=1;align=center;verticalAlign=middle;whiteSpace=wrap;rounded=0;" parent="1" vertex="1">
          <mxGeometry y="10" width="90" height="30" as="geometry" />
        </mxCell>
        <mxCell id="ecnET8qEaafnBf6bZj2x-6" value="n" style="text;html=1;align=center;verticalAlign=middle;whiteSpace=wrap;rounded=0;" parent="1" vertex="1">
          <mxGeometry x="280" y="195" width="60" height="30" as="geometry" />
        </mxCell>
        <mxCell id="ecnET8qEaafnBf6bZj2x-7" value="" style="rhombus;whiteSpace=wrap;html=1;" parent="1" vertex="1">
          <mxGeometry x="260" y="310" width="80" height="80" as="geometry" />
        </mxCell>
        <mxCell id="ecnET8qEaafnBf6bZj2x-8" value="" style="endArrow=classic;html=1;rounded=0;exitX=0.5;exitY=1;exitDx=0;exitDy=0;" parent="1" source="ecnET8qEaafnBf6bZj2x-4" target="ecnET8qEaafnBf6bZj2x-7" edge="1">
          <mxGeometry width="50" height="50" relative="1" as="geometry">
            <mxPoint x="430" y="330" as="sourcePoint" />
            <mxPoint x="480" y="280" as="targetPoint" />
          </mxGeometry>
        </mxCell>
        <mxCell id="ecnET8qEaafnBf6bZj2x-9" value="n%2==1&lt;div&gt;&amp;amp;&amp;amp; n&amp;gt;100&lt;/div&gt;" style="text;html=1;align=center;verticalAlign=middle;whiteSpace=wrap;rounded=0;" parent="1" vertex="1">
          <mxGeometry x="270" y="335" width="60" height="30" as="geometry" />
        </mxCell>
        <mxCell id="ecnET8qEaafnBf6bZj2x-10" value="" style="endArrow=none;html=1;rounded=0;exitX=0.5;exitY=1;exitDx=0;exitDy=0;" parent="1" source="ecnET8qEaafnBf6bZj2x-7" edge="1">
          <mxGeometry width="50" height="50" relative="1" as="geometry">
            <mxPoint x="430" y="330" as="sourcePoint" />
            <mxPoint x="300" y="440" as="targetPoint" />
          </mxGeometry>
        </mxCell>
        <mxCell id="ecnET8qEaafnBf6bZj2x-11" value="true" style="text;html=1;align=center;verticalAlign=middle;whiteSpace=wrap;rounded=0;" parent="1" vertex="1">
          <mxGeometry x="270" y="440" width="60" height="30" as="geometry" />
        </mxCell>
        <mxCell id="ecnET8qEaafnBf6bZj2x-12" value="" style="endArrow=classic;html=1;rounded=0;exitX=0.5;exitY=1;exitDx=0;exitDy=0;" parent="1" source="ecnET8qEaafnBf6bZj2x-11" edge="1">
          <mxGeometry width="50" height="50" relative="1" as="geometry">
            <mxPoint x="430" y="330" as="sourcePoint" />
            <mxPoint x="300" y="520" as="targetPoint" />
          </mxGeometry>
        </mxCell>
        <mxCell id="ecnET8qEaafnBf6bZj2x-13" value="" style="shape=document;whiteSpace=wrap;html=1;boundedLbl=1;" parent="1" vertex="1">
          <mxGeometry x="240" y="520" width="120" height="80" as="geometry" />
        </mxCell>
        <mxCell id="ecnET8qEaafnBf6bZj2x-14" value="n&amp;gt;100 &amp;nbsp;tək ədəd&lt;div&gt;və n&amp;lt;100 cüt ədəd&lt;/div&gt;" style="text;html=1;align=center;verticalAlign=middle;whiteSpace=wrap;rounded=0;" parent="1" vertex="1">
          <mxGeometry x="250" y="537" width="105" height="30" as="geometry" />
        </mxCell>
        <mxCell id="ecnET8qEaafnBf6bZj2x-15" value="" style="endArrow=none;html=1;rounded=0;exitX=1;exitY=0.5;exitDx=0;exitDy=0;" parent="1" source="ecnET8qEaafnBf6bZj2x-7" edge="1">
          <mxGeometry width="50" height="50" relative="1" as="geometry">
            <mxPoint x="430" y="330" as="sourcePoint" />
            <mxPoint x="390" y="350" as="targetPoint" />
          </mxGeometry>
        </mxCell>
        <mxCell id="ecnET8qEaafnBf6bZj2x-16" value="false" style="text;html=1;align=center;verticalAlign=middle;whiteSpace=wrap;rounded=0;" parent="1" vertex="1">
          <mxGeometry x="390" y="335" width="60" height="30" as="geometry" />
        </mxCell>
        <mxCell id="ecnET8qEaafnBf6bZj2x-17" value="" style="endArrow=classic;html=1;rounded=0;exitX=1;exitY=0.5;exitDx=0;exitDy=0;" parent="1" source="ecnET8qEaafnBf6bZj2x-16" edge="1">
          <mxGeometry width="50" height="50" relative="1" as="geometry">
            <mxPoint x="470" y="330" as="sourcePoint" />
            <mxPoint x="520" y="350" as="targetPoint" />
          </mxGeometry>
        </mxCell>
        <mxCell id="ecnET8qEaafnBf6bZj2x-18" value="" style="shape=document;whiteSpace=wrap;html=1;boundedLbl=1;" parent="1" vertex="1">
          <mxGeometry x="530" y="320" width="120" height="80" as="geometry" />
        </mxCell>
        <mxCell id="ecnET8qEaafnBf6bZj2x-19" value="&lt;span style=&quot;text-align: start; caret-color: rgb(60, 64, 67); color: rgb(60, 64, 67); font-family: Roboto, Arial, sans-serif; font-size: 14px; letter-spacing: 0.2px;&quot;&gt;Düzgün ədəd daxil edilməyib&lt;/span&gt;" style="text;html=1;align=center;verticalAlign=middle;whiteSpace=wrap;rounded=0;" parent="1" vertex="1">
          <mxGeometry x="540" y="327.5" width="100" height="45" as="geometry" />
        </mxCell>
      </root>
    </mxGraphModel>
  </diagram>
  <diagram id="0vedEtfkgfIqW0kIyIcd" name="task-03">
    <mxGraphModel dx="613" dy="392" grid="1" gridSize="10" guides="1" tooltips="1" connect="1" arrows="1" fold="1" page="1" pageScale="1" pageWidth="827" pageHeight="1169" math="0" shadow="0">
      <root>
        <mxCell id="0" />
        <mxCell id="1" parent="0" />
        <mxCell id="Mx-x9kbCLyqAEh3UOTMG-1" value="" style="ellipse;whiteSpace=wrap;html=1;" parent="1" vertex="1">
          <mxGeometry x="250" y="40" width="120" height="80" as="geometry" />
        </mxCell>
        <mxCell id="Mx-x9kbCLyqAEh3UOTMG-2" value="start" style="text;html=1;align=center;verticalAlign=middle;whiteSpace=wrap;rounded=0;" parent="1" vertex="1">
          <mxGeometry x="280" y="60" width="60" height="30" as="geometry" />
        </mxCell>
        <mxCell id="_2wIdani2bd6W5ZsGUAO-1" value="Tapşırıq-03" style="text;html=1;align=center;verticalAlign=middle;whiteSpace=wrap;rounded=0;" parent="1" vertex="1">
          <mxGeometry x="10" y="10" width="80" height="30" as="geometry" />
        </mxCell>
        <mxCell id="_2wIdani2bd6W5ZsGUAO-2" value="" style="endArrow=classic;html=1;rounded=0;" parent="1" edge="1">
          <mxGeometry width="50" height="50" relative="1" as="geometry">
            <mxPoint x="320" y="120" as="sourcePoint" />
            <mxPoint x="320" y="180" as="targetPoint" />
          </mxGeometry>
        </mxCell>
        <mxCell id="_2wIdani2bd6W5ZsGUAO-3" value="" style="shape=parallelogram;perimeter=parallelogramPerimeter;whiteSpace=wrap;html=1;fixedSize=1;" parent="1" vertex="1">
          <mxGeometry x="260" y="180" width="120" height="60" as="geometry" />
        </mxCell>
        <mxCell id="_2wIdani2bd6W5ZsGUAO-4" value="n1,n2,n3, sum" style="text;html=1;align=center;verticalAlign=middle;whiteSpace=wrap;rounded=0;" parent="1" vertex="1">
          <mxGeometry x="290" y="200" width="60" height="30" as="geometry" />
        </mxCell>
        <mxCell id="_2wIdani2bd6W5ZsGUAO-5" value="" style="endArrow=classic;html=1;rounded=0;exitX=0.417;exitY=1.1;exitDx=0;exitDy=0;exitPerimeter=0;" parent="1" source="_2wIdani2bd6W5ZsGUAO-3" edge="1">
          <mxGeometry width="50" height="50" relative="1" as="geometry">
            <mxPoint x="290" y="140" as="sourcePoint" />
            <mxPoint x="310" y="330" as="targetPoint" />
          </mxGeometry>
        </mxCell>
        <mxCell id="_2wIdani2bd6W5ZsGUAO-6" value="" style="rhombus;whiteSpace=wrap;html=1;" parent="1" vertex="1">
          <mxGeometry x="250" y="450" width="120" height="80" as="geometry" />
        </mxCell>
        <mxCell id="2x0uE_n0FD9767z5F_1U-1" value="" style="rounded=0;whiteSpace=wrap;html=1;" parent="1" vertex="1">
          <mxGeometry x="250" y="330" width="120" height="60" as="geometry" />
        </mxCell>
        <mxCell id="2x0uE_n0FD9767z5F_1U-2" value="n1=n1n2n3//100&lt;div&gt;n2=n1n2n3%100//10&lt;/div&gt;&lt;div&gt;n3=n1n2n3%10&lt;/div&gt;" style="text;html=1;align=center;verticalAlign=middle;whiteSpace=wrap;rounded=0;" parent="1" vertex="1">
          <mxGeometry x="250" y="330" width="120" height="60" as="geometry" />
        </mxCell>
        <mxCell id="2x0uE_n0FD9767z5F_1U-4" value="" style="endArrow=classic;html=1;rounded=0;exitX=0.5;exitY=1;exitDx=0;exitDy=0;" parent="1" source="2x0uE_n0FD9767z5F_1U-2" edge="1">
          <mxGeometry width="50" height="50" relative="1" as="geometry">
            <mxPoint x="310" y="450" as="sourcePoint" />
            <mxPoint x="310" y="445" as="targetPoint" />
          </mxGeometry>
        </mxCell>
        <mxCell id="2x0uE_n0FD9767z5F_1U-6" value="sum=n1+n2+n3" style="text;html=1;align=center;verticalAlign=middle;whiteSpace=wrap;rounded=0;" parent="1" vertex="1">
          <mxGeometry x="270" y="475" width="80" height="30" as="geometry" />
        </mxCell>
        <mxCell id="2x0uE_n0FD9767z5F_1U-12" value="" style="endArrow=none;html=1;rounded=0;exitX=0.5;exitY=1;exitDx=0;exitDy=0;" parent="1" source="_2wIdani2bd6W5ZsGUAO-6" edge="1">
          <mxGeometry width="50" height="50" relative="1" as="geometry">
            <mxPoint x="260" y="510" as="sourcePoint" />
            <mxPoint x="310" y="580" as="targetPoint" />
          </mxGeometry>
        </mxCell>
        <mxCell id="2x0uE_n0FD9767z5F_1U-15" style="edgeStyle=orthogonalEdgeStyle;rounded=0;orthogonalLoop=1;jettySize=auto;html=1;" parent="1" source="2x0uE_n0FD9767z5F_1U-13" target="2x0uE_n0FD9767z5F_1U-14" edge="1">
          <mxGeometry relative="1" as="geometry" />
        </mxCell>
        <mxCell id="2x0uE_n0FD9767z5F_1U-13" value="true" style="text;html=1;align=center;verticalAlign=middle;whiteSpace=wrap;rounded=0;" parent="1" vertex="1">
          <mxGeometry x="280" y="580" width="60" height="30" as="geometry" />
        </mxCell>
        <mxCell id="2x0uE_n0FD9767z5F_1U-14" value="" style="shape=document;whiteSpace=wrap;html=1;boundedLbl=1;" parent="1" vertex="1">
          <mxGeometry x="250" y="650" width="120" height="80" as="geometry" />
        </mxCell>
        <mxCell id="2x0uE_n0FD9767z5F_1U-16" value="Duzgun qeyd olunub" style="text;html=1;align=center;verticalAlign=middle;whiteSpace=wrap;rounded=0;" parent="1" vertex="1">
          <mxGeometry x="280" y="670" width="60" height="30" as="geometry" />
        </mxCell>
        <mxCell id="2x0uE_n0FD9767z5F_1U-19" style="edgeStyle=orthogonalEdgeStyle;rounded=0;orthogonalLoop=1;jettySize=auto;html=1;" parent="1" source="2x0uE_n0FD9767z5F_1U-17" edge="1">
          <mxGeometry relative="1" as="geometry">
            <mxPoint x="570" y="490" as="targetPoint" />
          </mxGeometry>
        </mxCell>
        <mxCell id="2x0uE_n0FD9767z5F_1U-17" value="false" style="text;html=1;align=center;verticalAlign=middle;whiteSpace=wrap;rounded=0;" parent="1" vertex="1">
          <mxGeometry x="430" y="475" width="70" height="30" as="geometry" />
        </mxCell>
        <mxCell id="2x0uE_n0FD9767z5F_1U-20" value="" style="shape=document;whiteSpace=wrap;html=1;boundedLbl=1;" parent="1" vertex="1">
          <mxGeometry x="570" y="460" width="120" height="80" as="geometry" />
        </mxCell>
        <mxCell id="2x0uE_n0FD9767z5F_1U-21" value="duzgun 3 reqemli eded daxil edilmeyib" style="text;html=1;align=center;verticalAlign=middle;whiteSpace=wrap;rounded=0;" parent="1" vertex="1">
          <mxGeometry x="600" y="475" width="60" height="30" as="geometry" />
        </mxCell>
        <mxCell id="2x0uE_n0FD9767z5F_1U-23" value="" style="endArrow=none;html=1;rounded=0;exitX=1;exitY=0.5;exitDx=0;exitDy=0;" parent="1" source="_2wIdani2bd6W5ZsGUAO-6" target="2x0uE_n0FD9767z5F_1U-17" edge="1">
          <mxGeometry width="50" height="50" relative="1" as="geometry">
            <mxPoint x="380" y="490" as="sourcePoint" />
            <mxPoint x="440" y="480" as="targetPoint" />
          </mxGeometry>
        </mxCell>
      </root>
    </mxGraphModel>
  </diagram>
  <diagram id="FWFjIfgIJWtscbfGPA0u" name="task-04">
    <mxGraphModel dx="721" dy="461" grid="1" gridSize="10" guides="1" tooltips="1" connect="1" arrows="1" fold="1" page="1" pageScale="1" pageWidth="827" pageHeight="1169" math="0" shadow="0">
      <root>
        <mxCell id="0" />
        <mxCell id="1" parent="0" />
        <mxCell id="gdQYpQrFtqVeo0oSq1wh-5" value="" style="rhombus;whiteSpace=wrap;html=1;" vertex="1" parent="1">
          <mxGeometry x="225" y="245" width="150" height="110" as="geometry" />
        </mxCell>
        <mxCell id="joA5Mql7hSQOKlLAQy-c-1" value="" style="ellipse;whiteSpace=wrap;html=1;" vertex="1" parent="1">
          <mxGeometry x="240" width="120" height="80" as="geometry" />
        </mxCell>
        <mxCell id="gdQYpQrFtqVeo0oSq1wh-19" style="edgeStyle=orthogonalEdgeStyle;rounded=0;orthogonalLoop=1;jettySize=auto;html=1;" edge="1" parent="1" target="gdQYpQrFtqVeo0oSq1wh-1">
          <mxGeometry relative="1" as="geometry">
            <mxPoint x="300" y="90" as="sourcePoint" />
          </mxGeometry>
        </mxCell>
        <mxCell id="joA5Mql7hSQOKlLAQy-c-2" value="start" style="text;html=1;align=center;verticalAlign=middle;whiteSpace=wrap;rounded=0;" vertex="1" parent="1">
          <mxGeometry x="270" y="25" width="60" height="30" as="geometry" />
        </mxCell>
        <mxCell id="uPN3N_zERWVQoljnVwsv-1" value="Tapşırıq-04" style="text;html=1;align=center;verticalAlign=middle;whiteSpace=wrap;rounded=0;" vertex="1" parent="1">
          <mxGeometry x="10" y="10" width="80" height="30" as="geometry" />
        </mxCell>
        <mxCell id="gdQYpQrFtqVeo0oSq1wh-15" style="edgeStyle=orthogonalEdgeStyle;rounded=0;orthogonalLoop=1;jettySize=auto;html=1;entryX=0.5;entryY=0;entryDx=0;entryDy=0;" edge="1" parent="1" source="gdQYpQrFtqVeo0oSq1wh-1" target="gdQYpQrFtqVeo0oSq1wh-5">
          <mxGeometry relative="1" as="geometry" />
        </mxCell>
        <mxCell id="gdQYpQrFtqVeo0oSq1wh-1" value="" style="rounded=0;whiteSpace=wrap;html=1;" vertex="1" parent="1">
          <mxGeometry x="240" y="110" width="120" height="60" as="geometry" />
        </mxCell>
        <mxCell id="gdQYpQrFtqVeo0oSq1wh-3" value="51&amp;lt;=n&lt;font size=&quot;1&quot;&gt;&amp;lt;=65&lt;/font&gt;&lt;div&gt;65&amp;lt;n&lt;font size=&quot;1&quot;&gt;&amp;lt;=75&lt;/font&gt;&lt;font size=&quot;1&quot;&gt;&lt;br&gt;&lt;/font&gt;&lt;/div&gt;&lt;div&gt;75&amp;lt;n&lt;font size=&quot;1&quot;&gt;&amp;lt;=85&lt;/font&gt;&lt;font size=&quot;1&quot;&gt;&lt;br&gt;&lt;/font&gt;&lt;/div&gt;&lt;div&gt;85&amp;lt;=n&lt;font size=&quot;1&quot;&gt;&amp;lt;=100&lt;/font&gt;&lt;font size=&quot;1&quot;&gt;&lt;br&gt;&lt;/font&gt;&lt;/div&gt;" style="text;html=1;align=center;verticalAlign=middle;whiteSpace=wrap;rounded=0;" vertex="1" parent="1">
          <mxGeometry x="240" y="270" width="120" height="60" as="geometry" />
        </mxCell>
        <mxCell id="gdQYpQrFtqVeo0oSq1wh-4" value="n" style="text;html=1;align=center;verticalAlign=middle;whiteSpace=wrap;rounded=0;" vertex="1" parent="1">
          <mxGeometry x="270" y="125" width="60" height="30" as="geometry" />
        </mxCell>
        <mxCell id="gdQYpQrFtqVeo0oSq1wh-6" value="" style="endArrow=none;html=1;rounded=0;exitX=0.5;exitY=1;exitDx=0;exitDy=0;" edge="1" parent="1" source="gdQYpQrFtqVeo0oSq1wh-5">
          <mxGeometry width="50" height="50" relative="1" as="geometry">
            <mxPoint x="290" y="300" as="sourcePoint" />
            <mxPoint x="300" y="420" as="targetPoint" />
          </mxGeometry>
        </mxCell>
        <mxCell id="gdQYpQrFtqVeo0oSq1wh-7" value="" style="endArrow=none;html=1;rounded=0;exitX=1;exitY=0.5;exitDx=0;exitDy=0;" edge="1" parent="1" source="gdQYpQrFtqVeo0oSq1wh-5">
          <mxGeometry width="50" height="50" relative="1" as="geometry">
            <mxPoint x="290" y="300" as="sourcePoint" />
            <mxPoint x="450" y="300" as="targetPoint" />
          </mxGeometry>
        </mxCell>
        <mxCell id="gdQYpQrFtqVeo0oSq1wh-12" style="edgeStyle=orthogonalEdgeStyle;rounded=0;orthogonalLoop=1;jettySize=auto;html=1;" edge="1" parent="1" source="gdQYpQrFtqVeo0oSq1wh-8" target="gdQYpQrFtqVeo0oSq1wh-10">
          <mxGeometry relative="1" as="geometry" />
        </mxCell>
        <mxCell id="gdQYpQrFtqVeo0oSq1wh-8" value="true" style="text;html=1;align=center;verticalAlign=middle;whiteSpace=wrap;rounded=0;" vertex="1" parent="1">
          <mxGeometry x="270" y="420" width="60" height="30" as="geometry" />
        </mxCell>
        <mxCell id="gdQYpQrFtqVeo0oSq1wh-14" style="edgeStyle=orthogonalEdgeStyle;rounded=0;orthogonalLoop=1;jettySize=auto;html=1;" edge="1" parent="1" source="gdQYpQrFtqVeo0oSq1wh-9" target="gdQYpQrFtqVeo0oSq1wh-13">
          <mxGeometry relative="1" as="geometry" />
        </mxCell>
        <mxCell id="gdQYpQrFtqVeo0oSq1wh-9" value="false" style="text;html=1;align=center;verticalAlign=middle;whiteSpace=wrap;rounded=0;" vertex="1" parent="1">
          <mxGeometry x="450" y="285" width="60" height="30" as="geometry" />
        </mxCell>
        <mxCell id="gdQYpQrFtqVeo0oSq1wh-10" value="" style="shape=document;whiteSpace=wrap;html=1;boundedLbl=1;" vertex="1" parent="1">
          <mxGeometry x="240" y="490" width="120" height="80" as="geometry" />
        </mxCell>
        <mxCell id="gdQYpQrFtqVeo0oSq1wh-13" value="" style="shape=document;whiteSpace=wrap;html=1;boundedLbl=1;" vertex="1" parent="1">
          <mxGeometry x="580" y="260" width="120" height="80" as="geometry" />
        </mxCell>
        <mxCell id="gdQYpQrFtqVeo0oSq1wh-20" value="DCBA" style="text;html=1;align=center;verticalAlign=middle;whiteSpace=wrap;rounded=0;" vertex="1" parent="1">
          <mxGeometry x="270" y="510" width="60" height="30" as="geometry" />
        </mxCell>
        <mxCell id="gdQYpQrFtqVeo0oSq1wh-21" value="F" style="text;html=1;align=center;verticalAlign=middle;whiteSpace=wrap;rounded=0;" vertex="1" parent="1">
          <mxGeometry x="610" y="280" width="60" height="30" as="geometry" />
        </mxCell>
      </root>
    </mxGraphModel>
  </diagram>
  <diagram id="jBQsvcUu0pqWKVOFV1Qm" name="task-05">
    <mxGraphModel dx="613" dy="392" grid="1" gridSize="10" guides="1" tooltips="1" connect="1" arrows="1" fold="1" page="1" pageScale="1" pageWidth="827" pageHeight="1169" math="0" shadow="0">
      <root>
        <mxCell id="0" />
        <mxCell id="1" parent="0" />
        <mxCell id="DA2YJxjZoFdlDsHcgfDj-1" value="Tapşırıq-05" style="text;html=1;align=center;verticalAlign=middle;whiteSpace=wrap;rounded=0;" vertex="1" parent="1">
          <mxGeometry x="10" y="10" width="80" height="30" as="geometry" />
        </mxCell>
        <mxCell id="DA2YJxjZoFdlDsHcgfDj-2" value="" style="ellipse;whiteSpace=wrap;html=1;" vertex="1" parent="1">
          <mxGeometry x="260" y="10" width="120" height="80" as="geometry" />
        </mxCell>
        <mxCell id="DA2YJxjZoFdlDsHcgfDj-3" value="Start" style="text;html=1;align=center;verticalAlign=middle;whiteSpace=wrap;rounded=0;" vertex="1" parent="1">
          <mxGeometry x="290" y="40" width="60" height="30" as="geometry" />
        </mxCell>
        <mxCell id="DA2YJxjZoFdlDsHcgfDj-4" value="" style="rhombus;whiteSpace=wrap;html=1;" vertex="1" parent="1">
          <mxGeometry x="280" y="160" width="80" height="80" as="geometry" />
        </mxCell>
        <mxCell id="DA2YJxjZoFdlDsHcgfDj-5" value="" style="endArrow=classic;html=1;rounded=0;exitX=0.5;exitY=1;exitDx=0;exitDy=0;entryX=0.5;entryY=0;entryDx=0;entryDy=0;" edge="1" parent="1" source="DA2YJxjZoFdlDsHcgfDj-2" target="DA2YJxjZoFdlDsHcgfDj-4">
          <mxGeometry width="50" height="50" relative="1" as="geometry">
            <mxPoint x="290" y="230" as="sourcePoint" />
            <mxPoint x="340" y="180" as="targetPoint" />
          </mxGeometry>
        </mxCell>
        <mxCell id="DA2YJxjZoFdlDsHcgfDj-6" value="n%4=0&lt;div&gt;n%100=0&lt;/div&gt;&lt;div&gt;n%400=0&lt;/div&gt;" style="text;html=1;align=center;verticalAlign=middle;whiteSpace=wrap;rounded=0;" vertex="1" parent="1">
          <mxGeometry x="290" y="180" width="60" height="30" as="geometry" />
        </mxCell>
        <mxCell id="57xl4UFPx8lc5wmJ_9wp-4" value="" style="endArrow=none;html=1;rounded=0;entryX=0.5;entryY=1;entryDx=0;entryDy=0;" edge="1" parent="1" target="DA2YJxjZoFdlDsHcgfDj-4">
          <mxGeometry width="50" height="50" relative="1" as="geometry">
            <mxPoint x="320" y="290" as="sourcePoint" />
            <mxPoint x="340" y="180" as="targetPoint" />
          </mxGeometry>
        </mxCell>
        <mxCell id="57xl4UFPx8lc5wmJ_9wp-5" value="true" style="text;html=1;align=center;verticalAlign=middle;whiteSpace=wrap;rounded=0;" vertex="1" parent="1">
          <mxGeometry x="290" y="290" width="60" height="30" as="geometry" />
        </mxCell>
        <mxCell id="57xl4UFPx8lc5wmJ_9wp-6" value="" style="shape=document;whiteSpace=wrap;html=1;boundedLbl=1;" vertex="1" parent="1">
          <mxGeometry x="270" y="360" width="120" height="80" as="geometry" />
        </mxCell>
        <mxCell id="57xl4UFPx8lc5wmJ_9wp-7" value="" style="endArrow=classic;html=1;rounded=0;exitX=0.5;exitY=1;exitDx=0;exitDy=0;entryX=0.433;entryY=0.025;entryDx=0;entryDy=0;entryPerimeter=0;" edge="1" parent="1" source="57xl4UFPx8lc5wmJ_9wp-5" target="57xl4UFPx8lc5wmJ_9wp-6">
          <mxGeometry width="50" height="50" relative="1" as="geometry">
            <mxPoint x="290" y="270" as="sourcePoint" />
            <mxPoint x="340" y="220" as="targetPoint" />
          </mxGeometry>
        </mxCell>
        <mxCell id="57xl4UFPx8lc5wmJ_9wp-8" value="" style="shape=document;whiteSpace=wrap;html=1;boundedLbl=1;" vertex="1" parent="1">
          <mxGeometry x="570" y="170" width="120" height="80" as="geometry" />
        </mxCell>
        <mxCell id="57xl4UFPx8lc5wmJ_9wp-9" value="" style="endArrow=none;html=1;rounded=0;entryX=1;entryY=0.5;entryDx=0;entryDy=0;" edge="1" parent="1" target="DA2YJxjZoFdlDsHcgfDj-4">
          <mxGeometry width="50" height="50" relative="1" as="geometry">
            <mxPoint x="440" y="200" as="sourcePoint" />
            <mxPoint x="360" y="220" as="targetPoint" />
          </mxGeometry>
        </mxCell>
        <mxCell id="57xl4UFPx8lc5wmJ_9wp-10" value="false" style="text;html=1;align=center;verticalAlign=middle;whiteSpace=wrap;rounded=0;" vertex="1" parent="1">
          <mxGeometry x="440" y="185" width="60" height="30" as="geometry" />
        </mxCell>
        <mxCell id="57xl4UFPx8lc5wmJ_9wp-11" value="" style="endArrow=classic;html=1;rounded=0;exitX=1;exitY=0.5;exitDx=0;exitDy=0;entryX=0;entryY=0.375;entryDx=0;entryDy=0;entryPerimeter=0;" edge="1" parent="1" source="57xl4UFPx8lc5wmJ_9wp-10" target="57xl4UFPx8lc5wmJ_9wp-8">
          <mxGeometry width="50" height="50" relative="1" as="geometry">
            <mxPoint x="310" y="270" as="sourcePoint" />
            <mxPoint x="360" y="220" as="targetPoint" />
          </mxGeometry>
        </mxCell>
        <mxCell id="57xl4UFPx8lc5wmJ_9wp-12" value="&lt;span style=&quot;text-align: start; caret-color: rgb(60, 64, 67); color: rgb(60, 64, 67); font-family: Roboto, Arial, sans-serif; font-size: 14px; letter-spacing: 0.2px;&quot;&gt;fevral ayı 29dan-dır&lt;/span&gt;" style="text;html=1;align=center;verticalAlign=middle;whiteSpace=wrap;rounded=0;" vertex="1" parent="1">
          <mxGeometry x="280" y="350" width="100" height="80" as="geometry" />
        </mxCell>
        <mxCell id="57xl4UFPx8lc5wmJ_9wp-13" value="&lt;span style=&quot;caret-color: rgb(60, 64, 67); color: rgb(60, 64, 67); font-family: Roboto, Arial, sans-serif; font-size: 14.000001px; letter-spacing: 0.2px; text-align: start;&quot;&gt;fevral ayı 29-dan deyil&lt;/span&gt;" style="text;html=1;align=center;verticalAlign=middle;whiteSpace=wrap;rounded=0;" vertex="1" parent="1">
          <mxGeometry x="580" y="185" width="100" height="30" as="geometry" />
        </mxCell>
      </root>
    </mxGraphModel>
  </diagram>
  <diagram id="rVECDR3aVMXo7t5mI8-z" name="task-06">
    <mxGraphModel dx="627" dy="477" grid="1" gridSize="10" guides="1" tooltips="1" connect="1" arrows="1" fold="1" page="1" pageScale="1" pageWidth="827" pageHeight="1169" math="0" shadow="0">
      <root>
        <mxCell id="0" />
        <mxCell id="1" parent="0" />
        <mxCell id="xREOU_91QTDIpB8_tzc--1" value="Tapşırıq-06" style="text;html=1;align=center;verticalAlign=middle;whiteSpace=wrap;rounded=0;" parent="1" vertex="1">
          <mxGeometry x="10" y="10" width="70" height="30" as="geometry" />
        </mxCell>
        <mxCell id="xREOU_91QTDIpB8_tzc--3" value="" style="ellipse;whiteSpace=wrap;html=1;" parent="1" vertex="1">
          <mxGeometry x="250" y="40" width="120" height="80" as="geometry" />
        </mxCell>
        <mxCell id="twOhGOb3a3NzUGnO8zEk-2" value="" style="edgeStyle=orthogonalEdgeStyle;rounded=0;orthogonalLoop=1;jettySize=auto;html=1;" parent="1" target="twOhGOb3a3NzUGnO8zEk-1" edge="1">
          <mxGeometry relative="1" as="geometry">
            <mxPoint x="310" y="120" as="sourcePoint" />
          </mxGeometry>
        </mxCell>
        <mxCell id="xREOU_91QTDIpB8_tzc--4" value="start" style="text;html=1;align=center;verticalAlign=middle;whiteSpace=wrap;rounded=0;" parent="1" vertex="1">
          <mxGeometry x="280" y="65" width="60" height="30" as="geometry" />
        </mxCell>
        <mxCell id="twOhGOb3a3NzUGnO8zEk-1" value="" style="rhombus;whiteSpace=wrap;html=1;" parent="1" vertex="1">
          <mxGeometry x="270" y="180" width="80" height="80" as="geometry" />
        </mxCell>
        <mxCell id="twOhGOb3a3NzUGnO8zEk-3" value="n &amp;lt; 2" style="text;html=1;align=center;verticalAlign=middle;whiteSpace=wrap;rounded=0;" parent="1" vertex="1">
          <mxGeometry x="280" y="205" width="60" height="30" as="geometry" />
        </mxCell>
        <mxCell id="twOhGOb3a3NzUGnO8zEk-4" value="" style="endArrow=none;html=1;rounded=0;exitX=0.5;exitY=1;exitDx=0;exitDy=0;" parent="1" source="twOhGOb3a3NzUGnO8zEk-1" edge="1">
          <mxGeometry width="50" height="50" relative="1" as="geometry">
            <mxPoint x="300" y="270" as="sourcePoint" />
            <mxPoint x="310" y="310" as="targetPoint" />
          </mxGeometry>
        </mxCell>
        <mxCell id="twOhGOb3a3NzUGnO8zEk-5" value="" style="endArrow=none;html=1;rounded=0;" parent="1" edge="1">
          <mxGeometry width="50" height="50" relative="1" as="geometry">
            <mxPoint x="430" y="220" as="sourcePoint" />
            <mxPoint x="350" y="220" as="targetPoint" />
          </mxGeometry>
        </mxCell>
        <mxCell id="twOhGOb3a3NzUGnO8zEk-6" value="true" style="text;html=1;align=center;verticalAlign=middle;whiteSpace=wrap;rounded=0;" parent="1" vertex="1">
          <mxGeometry x="280" y="310" width="60" height="30" as="geometry" />
        </mxCell>
        <mxCell id="twOhGOb3a3NzUGnO8zEk-11" value="" style="edgeStyle=orthogonalEdgeStyle;rounded=0;orthogonalLoop=1;jettySize=auto;html=1;" parent="1" source="twOhGOb3a3NzUGnO8zEk-7" target="twOhGOb3a3NzUGnO8zEk-10" edge="1">
          <mxGeometry relative="1" as="geometry" />
        </mxCell>
        <mxCell id="twOhGOb3a3NzUGnO8zEk-7" value="false" style="text;html=1;align=center;verticalAlign=middle;whiteSpace=wrap;rounded=0;" parent="1" vertex="1">
          <mxGeometry x="430" y="205" width="60" height="30" as="geometry" />
        </mxCell>
        <mxCell id="twOhGOb3a3NzUGnO8zEk-8" value="" style="shape=document;whiteSpace=wrap;html=1;boundedLbl=1;" parent="1" vertex="1">
          <mxGeometry x="257" y="390" width="120" height="80" as="geometry" />
        </mxCell>
        <mxCell id="twOhGOb3a3NzUGnO8zEk-9" style="edgeStyle=orthogonalEdgeStyle;rounded=0;orthogonalLoop=1;jettySize=auto;html=1;entryX=0.442;entryY=0.013;entryDx=0;entryDy=0;entryPerimeter=0;" parent="1" source="twOhGOb3a3NzUGnO8zEk-6" target="twOhGOb3a3NzUGnO8zEk-8" edge="1">
          <mxGeometry relative="1" as="geometry" />
        </mxCell>
        <mxCell id="twOhGOb3a3NzUGnO8zEk-10" value="" style="shape=document;whiteSpace=wrap;html=1;boundedLbl=1;" parent="1" vertex="1">
          <mxGeometry x="530" y="180" width="120" height="80" as="geometry" />
        </mxCell>
        <mxCell id="twOhGOb3a3NzUGnO8zEk-12" value="1" style="text;html=1;align=center;verticalAlign=middle;whiteSpace=wrap;rounded=0;" parent="1" vertex="1">
          <mxGeometry x="280" y="410" width="60" height="30" as="geometry" />
        </mxCell>
        <mxCell id="twOhGOb3a3NzUGnO8zEk-13" value="n * (n-1)!" style="text;html=1;align=center;verticalAlign=middle;whiteSpace=wrap;rounded=0;" parent="1" vertex="1">
          <mxGeometry x="560" y="200" width="60" height="30" as="geometry" />
        </mxCell>
        <mxCell id="sFIgfdF-85oOPjqK1DGV-1" value="&lt;div&gt;6!&lt;/div&gt;6 * 5!&lt;div&gt;6 * 5 * 4!&lt;br&gt;&lt;/div&gt;&lt;div&gt;6 * 5 * 4 * 3!&lt;br&gt;&lt;/div&gt;&lt;div&gt;6 * 5 * 4 * 3 * 2!&lt;br&gt;&lt;/div&gt;&lt;div&gt;6 * 5 * 4 * 3 * 2 * 1!&lt;br&gt;&lt;/div&gt;&lt;div&gt;6 * 5 * 4 * 3 * 2 * 1&lt;br&gt;&lt;/div&gt;" style="text;html=1;align=center;verticalAlign=middle;whiteSpace=wrap;rounded=0;" vertex="1" parent="1">
          <mxGeometry x="480" y="280" width="180" height="120" as="geometry" />
        </mxCell>
      </root>
    </mxGraphModel>
  </diagram>
  <diagram id="b0JtUQMHlpUzk7Adfwfe" name="task-07">
    <mxGraphModel dx="627" dy="477" grid="1" gridSize="10" guides="1" tooltips="1" connect="1" arrows="1" fold="1" page="1" pageScale="1" pageWidth="827" pageHeight="1169" math="0" shadow="0">
      <root>
        <mxCell id="0" />
        <mxCell id="1" parent="0" />
        <mxCell id="yvBxnA2dp7Jp6Scn2Wdt-1" value="" style="ellipse;whiteSpace=wrap;html=1;" parent="1" vertex="1">
          <mxGeometry x="250" width="120" height="80" as="geometry" />
        </mxCell>
        <mxCell id="yvBxnA2dp7Jp6Scn2Wdt-2" value="start" style="text;html=1;align=center;verticalAlign=middle;whiteSpace=wrap;rounded=0;" parent="1" vertex="1">
          <mxGeometry x="280" y="25" width="60" height="30" as="geometry" />
        </mxCell>
        <mxCell id="yvBxnA2dp7Jp6Scn2Wdt-3" value="" style="rounded=0;whiteSpace=wrap;html=1;" parent="1" vertex="1">
          <mxGeometry x="250" y="257.5" width="120" height="60" as="geometry" />
        </mxCell>
        <mxCell id="yvBxnA2dp7Jp6Scn2Wdt-5" value="" style="endArrow=classic;html=1;rounded=0;exitX=0.5;exitY=1;exitDx=0;exitDy=0;" parent="1" source="yvBxnA2dp7Jp6Scn2Wdt-1" edge="1">
          <mxGeometry width="50" height="50" relative="1" as="geometry">
            <mxPoint x="290" y="80" as="sourcePoint" />
            <mxPoint x="310" y="140" as="targetPoint" />
          </mxGeometry>
        </mxCell>
        <mxCell id="yvBxnA2dp7Jp6Scn2Wdt-6" value="n1=n//100&lt;div&gt;n2=(n//10)%10&lt;/div&gt;&lt;div&gt;n3=n%10&lt;/div&gt;&lt;div&gt;sum=n1+n2n3&lt;/div&gt;" style="text;html=1;align=center;verticalAlign=middle;whiteSpace=wrap;rounded=0;" parent="1" vertex="1">
          <mxGeometry x="255" y="260" width="110" height="55" as="geometry" />
        </mxCell>
        <mxCell id="3mecKQip5IZlRLfKsOIF-1" value="Tapşırıq-07" style="text;html=1;align=center;verticalAlign=middle;whiteSpace=wrap;rounded=0;" parent="1" vertex="1">
          <mxGeometry x="10" y="10" width="70" height="30" as="geometry" />
        </mxCell>
        <mxCell id="D4uRPFgsseUU1dgBiHOK-2" value="n1,n2,n3, sum" style="rounded=0;whiteSpace=wrap;html=1;" parent="1" vertex="1">
          <mxGeometry x="250" y="140" width="120" height="60" as="geometry" />
        </mxCell>
        <mxCell id="D4uRPFgsseUU1dgBiHOK-3" value="" style="endArrow=classic;html=1;rounded=0;exitX=0.5;exitY=1;exitDx=0;exitDy=0;" parent="1" source="D4uRPFgsseUU1dgBiHOK-2" edge="1">
          <mxGeometry width="50" height="50" relative="1" as="geometry">
            <mxPoint x="290" y="240" as="sourcePoint" />
            <mxPoint x="310" y="250" as="targetPoint" />
          </mxGeometry>
        </mxCell>
        <mxCell id="D4uRPFgsseUU1dgBiHOK-5" value="" style="endArrow=classic;startArrow=classic;html=1;rounded=0;entryX=0.5;entryY=1;entryDx=0;entryDy=0;" parent="1" target="yvBxnA2dp7Jp6Scn2Wdt-6" edge="1">
          <mxGeometry width="50" height="50" relative="1" as="geometry">
            <mxPoint x="310" y="380" as="sourcePoint" />
            <mxPoint x="320" y="320" as="targetPoint" />
          </mxGeometry>
        </mxCell>
        <mxCell id="D4uRPFgsseUU1dgBiHOK-6" value="" style="rhombus;whiteSpace=wrap;html=1;" parent="1" vertex="1">
          <mxGeometry x="255" y="380" width="110" height="90" as="geometry" />
        </mxCell>
        <mxCell id="D4uRPFgsseUU1dgBiHOK-7" value="n%3==0" style="text;html=1;align=center;verticalAlign=middle;whiteSpace=wrap;rounded=0;" parent="1" vertex="1">
          <mxGeometry x="280" y="410" width="60" height="30" as="geometry" />
        </mxCell>
        <mxCell id="D4uRPFgsseUU1dgBiHOK-14" style="edgeStyle=orthogonalEdgeStyle;rounded=0;orthogonalLoop=1;jettySize=auto;html=1;entryX=0.5;entryY=0;entryDx=0;entryDy=0;" parent="1" source="D4uRPFgsseUU1dgBiHOK-8" target="D4uRPFgsseUU1dgBiHOK-13" edge="1">
          <mxGeometry relative="1" as="geometry" />
        </mxCell>
        <mxCell id="D4uRPFgsseUU1dgBiHOK-8" value="true" style="text;html=1;align=center;verticalAlign=middle;whiteSpace=wrap;rounded=0;" parent="1" vertex="1">
          <mxGeometry x="280" y="540" width="60" height="30" as="geometry" />
        </mxCell>
        <mxCell id="D4uRPFgsseUU1dgBiHOK-9" value="false" style="text;html=1;align=center;verticalAlign=middle;whiteSpace=wrap;rounded=0;" parent="1" vertex="1">
          <mxGeometry x="460" y="410" width="60" height="30" as="geometry" />
        </mxCell>
        <mxCell id="D4uRPFgsseUU1dgBiHOK-11" value="" style="endArrow=none;html=1;rounded=0;exitX=1;exitY=0.5;exitDx=0;exitDy=0;entryX=0;entryY=0.5;entryDx=0;entryDy=0;" parent="1" source="D4uRPFgsseUU1dgBiHOK-6" target="D4uRPFgsseUU1dgBiHOK-9" edge="1">
          <mxGeometry width="50" height="50" relative="1" as="geometry">
            <mxPoint x="290" y="480" as="sourcePoint" />
            <mxPoint x="340" y="430" as="targetPoint" />
          </mxGeometry>
        </mxCell>
        <mxCell id="D4uRPFgsseUU1dgBiHOK-12" value="" style="endArrow=none;html=1;rounded=0;exitX=0.5;exitY=1;exitDx=0;exitDy=0;" parent="1" source="D4uRPFgsseUU1dgBiHOK-6" target="D4uRPFgsseUU1dgBiHOK-8" edge="1">
          <mxGeometry width="50" height="50" relative="1" as="geometry">
            <mxPoint x="290" y="480" as="sourcePoint" />
            <mxPoint x="340" y="430" as="targetPoint" />
          </mxGeometry>
        </mxCell>
        <mxCell id="D4uRPFgsseUU1dgBiHOK-13" value="" style="shape=document;whiteSpace=wrap;html=1;boundedLbl=1;" parent="1" vertex="1">
          <mxGeometry x="250" y="620" width="120" height="80" as="geometry" />
        </mxCell>
        <mxCell id="D4uRPFgsseUU1dgBiHOK-15" value="" style="shape=document;whiteSpace=wrap;html=1;boundedLbl=1;" parent="1" vertex="1">
          <mxGeometry x="580" y="396" width="120" height="80" as="geometry" />
        </mxCell>
        <mxCell id="D4uRPFgsseUU1dgBiHOK-16" style="edgeStyle=orthogonalEdgeStyle;rounded=0;orthogonalLoop=1;jettySize=auto;html=1;entryX=0.011;entryY=0.355;entryDx=0;entryDy=0;entryPerimeter=0;" parent="1" source="D4uRPFgsseUU1dgBiHOK-9" target="D4uRPFgsseUU1dgBiHOK-15" edge="1">
          <mxGeometry relative="1" as="geometry" />
        </mxCell>
        <mxCell id="D4uRPFgsseUU1dgBiHOK-17" value="&lt;span style=&quot;text-align: start; caret-color: rgb(60, 64, 67); color: rgb(60, 64, 67); font-family: Roboto, Arial, sans-serif; font-size: 14px; letter-spacing: 0.2px;&quot;&gt;reqemlerinin ceminin 3e bolunur&lt;/span&gt;" style="text;html=1;align=center;verticalAlign=middle;whiteSpace=wrap;rounded=0;" parent="1" vertex="1">
          <mxGeometry x="262.5" y="640" width="95" height="30" as="geometry" />
        </mxCell>
        <mxCell id="D4uRPFgsseUU1dgBiHOK-18" value="&lt;span style=&quot;caret-color: rgb(60, 64, 67); color: rgb(60, 64, 67); font-family: Roboto, Arial, sans-serif; font-size: 14.000001px; letter-spacing: 0.2px; text-align: start;&quot;&gt;reqemlerinin ceminin 3e bolunmur&lt;/span&gt;" style="text;html=1;align=center;verticalAlign=middle;whiteSpace=wrap;rounded=0;" parent="1" vertex="1">
          <mxGeometry x="600" y="410" width="80" height="30" as="geometry" />
        </mxCell>
      </root>
    </mxGraphModel>
  </diagram>
</mxfile>
